<?xml version="1.0" encoding="UTF-8"?>
<svg version="1.1" viewBox="0 0 800 800" width="200" height="200" xmlns="http://www.w3.org/2000/svg">
<path transform="translate(470,425)" d="m0 0h122l19 1 24 5 13 5 14 8 10 8 6 5v2h2l10 13 8 16 3 9 2 12 1 12v54l-1 20-4 21-8 20-6 10-11 14-10 10-11 7-14 6-15 4-6 1h-248l2-4 14-8 11-9 12-11 10-13 8-14 5-13 4-19 1-170 1-1z" fill="#4509D0"/>
<path transform="translate(533,88)" d="m0 0h72l20 3 21 7 14 8 12 9 9 8 9 12 5 9 5 11 2 9 1 10 1 248h-3l-6-11-9-13-11-13-12-10-11-7-14-7-17-5-6-1-171-1-2-1-1-36v-107l1-26 3-18 6-20 8-15 10-13 10-10 13-9 12-6 17-4z" fill="#5D62DD"/>
<path transform="translate(104,353)" d="m0 0 3 1 9 16 11 14 13 13 16 11 13 6 16 5 15 2 165 1 1 1v164l-3 22-5 17-8 16-10 14-13 13-13 8-11 5-19 5-7 1h-48l-36-2-15-3-15-5-17-9-13-10-10-10-10-15-6-15-2-9-1-9z" fill="#514CD9"/>
<path transform="translate(355,88)" d="m0 0h84v2l-14 8-14 10-13 12-10 12-7 11-5 13-4 14-2 17-1 163h-164l-19-2-16-4-11-5-11-6-13-10-13-13-7-11-7-16-3-13-1-10v-64l2-25 5-19 8-17 10-14 9-10 8-7 13-8 17-6 6-1z" fill="#7581E0"/>
<path transform="translate(104,353)" d="m0 0 3 1 9 16 11 14 12 12-3 1-1 5 3 7v5l-5 3-12 6-9 2-2 7-2 16-1 7v135l1 16 2 5-2 8-2-4-2-14z" fill="#6167DD"/>
<path transform="translate(408,657)" d="m0 0v3l-4 4h3 2l1-2 6-5 5 5v3l2 1-1 4 1 2-1 4 1 6h-3v2h-4v2h174l28 1v1h-248l2-4 14-8 11-9z" fill="#5C34DA"/>
<path transform="translate(442,184)" d="m0 0h1l1 56-1 105h-1l-1-28v-107z" fill="#7682E1"/>
<path transform="translate(105,454)" d="m0 0 2 1v135l1 16 2 5-2 8-2-4-1-5z" fill="#5D62DD"/>
<path transform="translate(200,679)" d="m0 0 6 3v2h10l21 2 40 1v1h-48l-36-2-7-1v-1l12-1v-2h2z" fill="#6A72DF"/>
<path transform="translate(609,427)" d="m0 0h8l21 5 10 4-2 2-7-1v-2h-9v-2l-15 1-2-4z" fill="#5B31D9"/>
<path transform="translate(441,427)" d="m0 0h20l-2 2-7 1 5 6-1 5-7 2-1 2-2-5 1-2h2l-1-3v-5l-5-1z" fill="#5823D8"/>
<path transform="translate(105,557)" d="m0 0 2 1v32l1 16 2 5-2 8-2-4-1-5z" fill="#5D62DD"/>
<path transform="translate(105,603)" d="m0 0 1 3h2l2 5-2 8-2-4-1-5z" fill="#656CDE"/>
<path transform="translate(105,354)" d="m0 0h2l2 4v4h-2l-1 4-1-4z" fill="#5756DA"/>
</svg>